<svg width="422" height="422" viewBox="0 0 422 422" fill="none" xmlns="http://www.w3.org/2000/svg">
  <style>
    path {
      fill: #FB651E;
    }
    .bars {
      fill: #FFFFFF;
    }
    @media (prefers-color-scheme: dark) {
      path {
        fill: #FB651E;
      }
      .bars {
        fill: #FFFFFF;
      }
    }
  </style>
  <path d="M422 211C422 327.532 327.532 422 211 422C94.4679 422 0 327.532 0 211C0 94.4679 94.4679 0 211 0C327.532 0 422 94.4679 422 211Z"/>
  <path class="bars" d="M102 199C102 184.088 114.088 172 129 172C143.912 172 156 184.088 156 199V282C156 296.912 143.912 309 129 309C114.088 309 102 296.912 102 282V199Z"/>
  <path class="bars" d="M183 225C183 210.088 195.088 198 210 198C224.912 198 237 210.088 237 225V282C237 296.912 224.912 309 210 309C195.088 309 183 296.912 183 282V225Z"/>
  <path class="bars" d="M266 141C266 126.088 278.088 114 293 114C307.912 114 320 126.088 320 141V282C320 296.912 307.912 309 293 309C278.088 309 266 296.912 266 282V141Z"/>
</svg>
